<svg width="393" height="360" viewBox="0 0 393 360" fill="none" xmlns="http://www.w3.org/2000/svg">
<path d="M392.05 51.6419C398.699 84.8484 369.432 104.414 335.569 108.917C333.019 109.253 330.439 109.513 327.843 109.681C325.339 109.849 322.813 109.925 320.294 109.925C313.057 99.4441 314.148 87.9935 320.729 77.9781C332.431 60.1611 361.508 46.8861 392.05 51.6419Z" fill="#EE9BA0"/>
<path d="M392.051 51.6419C361.508 46.8861 332.431 60.1611 320.729 77.9781C314.149 87.9935 313.057 99.4441 320.294 109.925C322.813 109.925 325.34 109.849 327.844 109.681C329.256 130.895 328.004 160.391 314.782 185.705C294.026 158.544 250.079 137.758 197.941 133.796C161.986 131.063 128.673 136.834 103.375 148.468C106.428 125.238 112.2 105.536 119.971 89.0622C122.833 89.5279 126.009 89.7798 129.398 89.7798C129.879 89.7798 130.368 89.7722 130.864 89.7645C131.001 89.7569 131.139 89.7569 131.276 89.7569C131.696 89.7416 132.124 89.7264 132.559 89.7111C133.093 89.6806 133.635 89.65 134.185 89.6195C134.719 89.5813 135.253 89.5355 135.788 89.4897C135.872 89.4821 135.956 89.4745 136.04 89.4745C136.398 89.4363 136.757 89.3981 137.108 89.36C137.833 89.2836 138.566 89.192 139.299 89.0928C140.032 88.9935 140.772 88.879 141.513 88.7569C141.841 88.7111 142.169 88.6424 142.498 88.5813C142.956 88.505 143.406 88.421 143.864 88.3294C144.208 88.2607 144.543 88.1844 144.887 88.108C145.192 88.047 145.498 87.9783 145.803 87.9096C146.444 87.7645 147.093 87.6118 147.742 87.4439C148.101 87.3523 148.452 87.2607 148.811 87.1615C149.086 87.0928 149.353 87.0164 149.628 86.9401C150.162 86.7874 150.696 86.6271 151.231 86.4668C151.337 86.4286 151.444 86.3981 151.551 86.3675C152.101 86.192 152.643 86.0164 153.192 85.8256C153.498 85.7263 153.796 85.6194 154.101 85.5126C154.33 85.4362 154.567 85.3523 154.803 85.253C154.849 85.2454 154.887 85.2225 154.933 85.2072C155.055 85.1614 155.177 85.1232 155.299 85.0774C155.498 85.0087 155.696 84.9324 155.887 84.8484C156.231 84.7187 156.567 84.5813 156.902 84.4439C157.231 84.3217 157.551 84.1843 157.872 84.0545C158.75 83.6805 159.62 83.2912 160.49 82.8866C160.788 82.7492 161.086 82.6041 161.383 82.4591C161.444 82.4286 161.513 82.398 161.574 82.3599C161.643 82.3293 161.704 82.2988 161.773 82.2683C162.048 82.1308 162.322 81.9858 162.597 81.8484C162.605 81.8408 162.605 81.8408 162.612 81.8408C162.719 81.7873 162.819 81.7339 162.925 81.6728C163.254 81.5049 163.582 81.3217 163.91 81.1461C164.269 80.9553 164.62 80.7568 164.971 80.5507C165.093 80.4896 165.223 80.4133 165.345 80.3446C165.742 80.1232 166.132 79.8865 166.521 79.6423C166.765 79.5049 167.009 79.3446 167.254 79.1919C167.292 79.169 167.338 79.1461 167.376 79.1232C167.513 79.0316 167.658 78.94 167.796 78.856C168.048 78.6881 168.307 78.5201 168.559 78.3522C168.819 78.1766 169.086 78.001 169.345 77.8102C169.399 77.7873 169.445 77.7491 169.49 77.7109C169.78 77.5125 170.071 77.314 170.353 77.1155C170.788 76.7949 171.208 76.4819 171.635 76.1613C171.742 76.0773 171.849 76.001 171.948 75.9247C171.994 75.8865 172.032 75.856 172.078 75.8254C172.506 75.4972 172.933 75.1613 173.353 74.8025C173.689 74.543 174.017 74.2605 174.345 73.9704C174.445 73.8941 174.536 73.8101 174.636 73.7262C174.697 73.6727 174.75 73.6269 174.811 73.5659C174.834 73.5506 174.857 73.5277 174.88 73.5124C175.017 73.3979 175.147 73.2758 175.277 73.1536C175.651 72.8254 176.025 72.4895 176.391 72.1307C176.414 72.1155 176.429 72.1002 176.452 72.0773C176.475 72.062 176.506 72.0391 176.529 72.0086C176.826 71.7261 177.124 71.4361 177.414 71.1383C177.506 71.0467 177.597 70.9628 177.681 70.8712C177.819 70.7338 177.956 70.5964 178.086 70.4513C178.124 70.4208 178.162 70.3903 178.185 70.3521C178.376 70.1612 178.567 69.9628 178.75 69.7719C178.796 69.7261 178.834 69.6803 178.872 69.6345C179.124 69.3597 179.376 69.1002 179.62 68.8177C179.62 68.8101 179.628 68.8024 179.636 68.7948C179.681 68.7414 179.727 68.6956 179.773 68.6421C179.88 68.5276 179.987 68.4055 180.086 68.291C180.246 68.1078 180.399 67.9246 180.544 67.749C180.811 67.4436 181.063 67.1459 181.315 66.8253C181.498 66.6039 181.681 66.3826 181.857 66.1459C182.017 65.9551 182.162 65.7642 182.307 65.5734C182.796 64.9474 183.262 64.2986 183.712 63.6421C183.903 63.3902 184.078 63.1382 184.246 62.8711C184.262 62.8634 184.269 62.8482 184.269 62.8329C184.422 62.6268 184.567 62.4054 184.704 62.184C184.735 62.1459 184.758 62.1001 184.781 62.0619C184.857 61.955 184.926 61.8481 184.987 61.7489C185.086 61.5886 185.178 61.4436 185.269 61.2909C185.307 61.2451 185.338 61.1917 185.361 61.1459C185.659 60.6878 185.933 60.2222 186.208 59.7489C186.468 59.2985 186.72 58.8557 186.972 58.3977C187.147 58.0771 187.315 57.7565 187.491 57.4283C187.735 56.955 187.972 56.4817 188.208 56.0007C188.292 55.8175 188.384 55.642 188.475 55.4588C188.567 55.2603 188.659 55.0542 188.743 54.8557C188.91 54.5045 189.071 54.1458 189.223 53.787C189.269 53.6954 189.307 53.6038 189.338 53.5122C189.445 53.2832 189.544 53.0541 189.628 52.8328C189.651 52.787 189.674 52.7335 189.689 52.6877C189.75 52.5579 189.804 52.4282 189.849 52.306C189.857 52.2831 189.857 52.2679 189.865 52.2602C189.994 51.9473 190.117 51.6419 190.231 51.3213C190.254 51.2908 190.262 51.2602 190.269 51.2297C190.384 50.9472 190.491 50.6648 190.59 50.3747C190.666 50.1839 190.735 49.9854 190.796 49.7946C190.918 49.474 191.025 49.161 191.132 48.8251C191.147 48.7793 191.17 48.7258 191.185 48.6648C191.277 48.4205 191.353 48.1762 191.43 47.9243C191.43 47.9167 191.437 47.9167 191.437 47.9014C191.445 47.8785 191.452 47.8556 191.46 47.8327V47.8251C191.475 47.7869 191.483 47.7487 191.498 47.7106C191.559 47.5197 191.62 47.3365 191.674 47.1457C191.758 46.8785 191.834 46.6037 191.911 46.3289C192.056 45.8708 192.185 45.4052 192.3 44.9395C192.323 44.8785 192.346 44.8174 192.353 44.7487C192.46 44.3899 192.552 44.0158 192.636 43.6418C192.651 43.6113 192.659 43.5731 192.659 43.5426C192.666 43.5197 192.666 43.5044 192.674 43.4815C192.712 43.3365 192.75 43.1838 192.781 43.0464C192.842 42.8097 192.903 42.5578 192.949 42.3212C193.101 41.6723 193.239 41.0158 193.361 40.3441C193.407 40.1532 193.437 39.9547 193.475 39.7562C193.475 39.741 193.483 39.7257 193.483 39.7104C193.529 39.5349 193.559 39.3593 193.582 39.1837C193.62 38.9929 193.659 38.8021 193.689 38.6036C193.72 38.4662 193.735 38.3288 193.758 38.1837C193.773 38.0921 193.788 37.9929 193.804 37.9013C193.842 37.6646 193.88 37.4356 193.911 37.2066C193.979 36.8096 194.033 36.4203 194.086 36.0081C194.132 35.7104 194.17 35.4203 194.201 35.1073C194.262 34.6646 194.315 34.2218 194.361 33.7638C194.369 33.6951 194.376 33.6188 194.384 33.5424C194.391 33.489 194.391 33.4356 194.399 33.3745C194.414 33.2524 194.43 33.1149 194.437 32.9852C194.491 32.4584 194.537 31.9317 194.575 31.405V31.3974C194.598 31.0539 194.628 30.718 194.643 30.3821C194.643 30.321 194.651 30.2676 194.651 30.2141C194.659 30.0767 194.674 29.9317 194.682 29.7867C194.704 29.5424 194.712 29.2905 194.72 29.0309C194.727 28.9851 194.727 28.9317 194.727 28.8859C194.735 28.8477 194.735 28.8172 194.735 28.7866C194.766 28.2676 194.788 27.7485 194.796 27.2294C194.804 27.1912 194.804 27.1607 194.796 27.1225C194.796 27.1149 194.796 27.1072 194.796 27.0996V27.0691C194.811 26.8859 194.811 26.695 194.811 26.5042C194.819 26.466 194.819 26.4202 194.819 26.3744C194.834 25.7332 194.842 25.0843 194.842 24.4278C217.048 19.1911 240.529 21.4201 262.072 29.9851C276.11 35.5654 289.324 43.8326 300.828 54.474C304.859 50.4281 311.645 45.1991 320.538 41.2677C337.943 33.573 363.409 30.8401 392.051 51.6419ZM271.186 109.925C271.186 98.3982 265.675 89.0622 258.881 89.0622C252.079 89.0622 246.575 98.3982 246.575 109.925C246.575 121.452 252.079 130.788 258.881 130.788C265.675 130.788 271.186 121.452 271.186 109.925ZM175.124 110.307C175.124 100.826 170.17 93.131 164.07 93.131C157.964 93.131 153.009 100.826 153.009 110.307C153.009 119.795 157.964 127.483 164.07 127.483C170.17 127.483 175.124 119.795 175.124 110.307Z" fill="#FFFBEA"/>
<path d="M348.92 283.737C366.729 314.164 363.806 343.722 363.806 359.547H349.05C348.981 359.547 359.737 334.607 348.92 283.737Z" fill="#DDB590"/>
<path d="M348.92 283.737C359.737 334.607 348.981 359.547 349.05 359.547H296.629C298.652 348.318 297.973 342.63 284.896 323.943C279.018 343.768 275.812 348.921 266.728 359.547H114.054C114.054 355.562 111.237 344.295 115.879 326.867C115.932 326.89 115.986 326.905 116.039 326.928C117.154 322.829 118.696 318.386 120.772 313.63C120.711 313.615 120.642 313.6 120.581 313.584C123.589 306.714 127.711 299.195 133.368 291.05C133.52 290.821 133.681 290.592 133.833 290.378C184.483 316.584 231.186 316.859 265.713 306.416C302.805 295.21 325.851 271.645 324.63 254.629C335.378 264.141 343.218 273.981 348.92 283.737Z" fill="#FFFBEA"/>
<path d="M335.569 108.917C345.905 140.62 345.378 179.582 327.515 223.491C328.363 210.278 323.721 197.4 314.782 185.705C328.004 160.391 329.256 130.895 327.844 109.681C330.439 109.513 333.019 109.253 335.569 108.917Z" fill="#DDB590"/>
<path d="M314.782 185.705C323.721 197.4 328.362 210.278 327.515 223.491C327.507 223.682 327.492 223.873 327.477 224.064C326.79 233.095 323.591 241.583 318.294 249.332C318.08 249.645 317.866 249.95 317.645 250.255C317.439 250.545 317.233 250.835 317.011 251.125C316.836 251.362 316.66 251.606 316.477 251.843C316.164 252.263 315.843 252.675 315.515 253.08C315.187 253.5 314.858 253.904 314.515 254.316C314.225 254.652 313.935 254.996 313.637 255.339C313.011 256.057 312.37 256.767 311.706 257.469C311.469 257.721 311.225 257.973 310.981 258.225C310.698 258.515 310.408 258.813 310.118 259.103C309.752 259.469 309.37 259.843 308.988 260.202C308.614 260.568 308.232 260.927 307.843 261.286C307.416 261.675 306.98 262.064 306.538 262.454C306.118 262.828 305.698 263.194 305.263 263.568C304.851 263.912 304.431 264.263 304.003 264.614C303.087 265.355 302.148 266.095 301.179 266.82C300.736 267.156 300.293 267.484 299.835 267.813C299.125 268.324 298.4 268.836 297.667 269.339C297.301 269.591 296.935 269.843 296.561 270.087C296.194 270.347 295.82 270.584 295.438 270.828C295.11 271.042 294.774 271.255 294.438 271.469C294.186 271.63 293.935 271.79 293.675 271.95C293.24 272.217 292.797 272.492 292.354 272.752C291.988 272.973 291.622 273.202 291.247 273.408C290.98 273.568 290.713 273.729 290.446 273.874C289.736 274.286 289.011 274.691 288.286 275.088C287.568 275.492 286.835 275.881 286.095 276.263C285.69 276.469 285.278 276.691 284.866 276.889C284.453 277.103 284.034 277.309 283.614 277.515C283.576 277.538 283.537 277.553 283.499 277.569C283.118 277.759 282.736 277.943 282.347 278.133C281.927 278.34 281.499 278.546 281.072 278.744C280.644 278.943 280.217 279.141 279.782 279.332C279.347 279.53 278.911 279.729 278.469 279.92C278.14 280.072 277.812 280.217 277.484 280.347C277.148 280.492 276.82 280.63 276.484 280.775C276.392 280.813 276.293 280.859 276.201 280.897C275.896 281.034 275.583 281.156 275.263 281.286C274.553 281.576 273.835 281.866 273.11 282.149C272.201 282.508 271.285 282.859 270.354 283.202C269.957 283.355 269.56 283.508 269.156 283.653C269.14 283.653 269.133 283.653 269.117 283.66C268.652 283.828 268.178 283.996 267.705 284.164C266.949 284.424 266.178 284.691 265.407 284.943C264.98 285.088 264.552 285.233 264.117 285.37C263.804 285.469 263.484 285.576 263.163 285.668C263.079 285.706 262.995 285.729 262.911 285.752C262.232 285.966 261.552 286.187 260.865 286.378C260.331 286.546 259.789 286.706 259.247 286.859C258.858 286.973 258.468 287.088 258.079 287.195C257.232 287.439 256.369 287.668 255.507 287.905C255.056 288.019 254.598 288.141 254.14 288.256C253.69 288.378 253.232 288.492 252.774 288.599C251.751 288.859 250.72 289.103 249.682 289.34C248.865 289.531 248.048 289.714 247.224 289.889C247.125 289.912 247.026 289.935 246.926 289.95C246.552 290.034 246.171 290.111 245.789 290.195C244.987 290.355 244.186 290.523 243.377 290.676C242.659 290.813 241.941 290.958 241.216 291.08C240.354 291.24 239.499 291.385 238.628 291.531C237.835 291.668 237.033 291.798 236.231 291.92C235.483 292.034 234.735 292.149 233.98 292.256C233.422 292.34 232.85 292.416 232.285 292.492C232.216 292.5 232.155 292.508 232.086 292.515C231.728 292.576 231.361 292.622 231.002 292.668C230.506 292.729 230.002 292.79 229.506 292.859C229.3 292.874 229.102 292.897 228.895 292.92C228.102 293.019 227.308 293.111 226.506 293.195L226.231 293.218C225.537 293.294 224.834 293.37 224.132 293.439C223.048 293.538 221.956 293.63 220.857 293.721C220.43 293.752 219.995 293.79 219.567 293.821C219.414 293.828 219.269 293.844 219.117 293.851H219.071C218.949 293.866 218.827 293.866 218.705 293.874C218.262 293.912 217.811 293.943 217.369 293.966C217.3 293.973 217.231 293.973 217.163 293.981C216.575 294.019 215.995 294.057 215.407 294.08C214.857 294.111 214.308 294.149 213.75 294.164C212.895 294.21 212.033 294.248 211.17 294.271C210.46 294.294 209.743 294.317 209.025 294.34C208.422 294.355 207.811 294.363 207.201 294.37C206.727 294.393 206.254 294.393 205.773 294.393C199.231 294.47 192.567 294.256 185.796 293.737C155.185 291.416 127.398 283.286 105.466 271.469C127.337 283.05 155.001 291.011 185.445 293.294C205.743 294.821 225.193 293.66 242.835 290.294C277.133 283.767 304.599 268.897 318.118 249.141V249.133C323.301 241.576 326.431 233.286 327.118 224.491L327.126 224.469V224.43C328.004 212.995 324.965 200.224 314.462 186.323C308.37 249.98 271.751 273.889 228.903 280.485C184.872 287.263 134.261 275.767 103.428 270.347C102.779 269.981 102.13 269.614 101.482 269.248C101.23 269.103 100.978 268.958 100.734 268.813C100.176 268.484 99.6266 268.149 99.077 267.82C98.6037 267.53 98.1304 267.248 97.6648 266.958H97.6571C96.8556 266.446 96.0693 265.958 95.2831 265.439C94.909 265.194 94.535 264.95 94.1609 264.713C93.7869 264.461 93.4204 264.217 93.054 263.965C93.0235 263.95 92.993 263.919 92.9701 263.904C92.2067 263.385 91.451 262.858 90.7029 262.332C89.2219 261.278 87.7715 260.202 86.3669 259.103C86.0158 258.843 85.6723 258.561 85.3287 258.278C84.9776 258.003 84.6341 257.729 84.2982 257.446C83.9547 257.171 83.6035 256.889 83.26 256.599C82.9165 256.316 82.5806 256.026 82.2447 255.744C82.1989 255.698 82.1608 255.66 82.115 255.622C81.8478 255.385 81.573 255.148 81.3058 254.912C80.9775 254.629 80.6569 254.339 80.3439 254.057C80.0233 253.774 79.7104 253.484 79.3974 253.194C79.0844 252.904 78.7714 252.614 78.4661 252.324C77.8477 251.744 77.2447 251.164 76.6492 250.561C76.3592 250.27 76.0615 249.973 75.7714 249.683C74.1378 248.011 72.5881 246.301 71.1454 244.56C70.9163 244.293 70.6873 244.011 70.4659 243.728C70.1911 243.4 69.924 243.064 69.6644 242.736C69.3972 242.4 69.1377 242.064 68.8858 241.728C68.3743 241.057 67.8705 240.385 67.3896 239.698C67.3438 239.644 67.3056 239.583 67.2674 239.53C66.8781 238.973 66.4964 238.423 66.1224 237.858C66.0766 237.789 66.0308 237.721 65.985 237.66C65.756 237.308 65.5346 236.965 65.3132 236.614C65.0918 236.278 64.8781 235.919 64.6643 235.576C64.5117 235.324 64.359 235.072 64.214 234.82C64.0918 234.629 63.9773 234.438 63.8705 234.24C63.7178 233.988 63.5727 233.736 63.4353 233.484C63.2369 233.133 63.046 232.782 62.8552 232.431C62.7559 232.255 62.6643 232.079 62.5804 231.904C62.5651 231.889 62.5575 231.866 62.5498 231.85C62.4429 231.66 62.3437 231.469 62.2521 231.278C62.2216 231.224 62.191 231.171 62.1681 231.125C62.0231 230.85 61.8933 230.583 61.7635 230.316C61.4048 229.598 61.0613 228.866 60.7406 228.14C60.588 227.789 60.4353 227.453 60.2903 227.095C60.1376 226.736 59.9925 226.377 59.8551 226.018C59.7101 225.659 59.5651 225.301 59.4353 224.934C59.1605 224.209 58.9009 223.476 58.6643 222.736C58.5421 222.346 58.4124 221.965 58.3055 221.56C58.2902 221.507 58.2673 221.446 58.252 221.392C58.1833 221.178 58.1223 220.965 58.0612 220.736C57.9543 220.377 57.8551 220.026 57.7635 219.675C57.7482 219.598 57.7253 219.53 57.7101 219.453C57.6337 219.156 57.5574 218.865 57.4887 218.575C57.4429 218.385 57.4047 218.194 57.3589 218.003C57.2978 217.743 57.2444 217.491 57.191 217.239C57.0688 216.667 56.9543 216.072 56.8551 215.484C56.8551 215.476 56.8551 215.476 56.8551 215.476C56.794 215.14 56.7406 214.812 56.6948 214.484C56.649 214.194 56.6032 213.904 56.565 213.613C56.5421 213.476 56.5268 213.346 56.5116 213.209C56.481 212.949 56.4505 212.667 56.42 212.392C56.3894 212.148 56.3665 211.896 56.3436 211.644C56.3131 211.377 56.2902 211.11 56.2749 210.85C56.2749 210.781 56.2673 210.728 56.2673 210.667C56.252 210.468 56.2368 210.262 56.2215 210.056C56.2215 209.972 56.2139 209.896 56.2062 209.812V209.758C56.191 209.468 56.1757 209.178 56.1681 208.873C56.1528 208.652 56.1451 208.415 56.1451 208.178C56.1375 207.85 56.1299 207.522 56.1299 207.201C56.1299 205.957 56.1757 204.713 56.2673 203.468C58.0078 180.506 75.9927 161.056 103.375 148.475V148.468C128.673 136.834 161.986 131.063 197.941 133.796C250.079 137.758 294.026 158.544 314.782 185.705ZM276.728 226.69L279.018 224.858C278.331 225.392 277.56 226.003 276.728 226.69L267.866 233.782C254.842 243.66 233.247 256.927 199.933 260.072L177.62 260.606C182.467 260.813 187.124 260.813 191.574 260.637C194.445 260.523 197.223 260.332 199.933 260.072C219.727 271.446 276.095 277.752 267.866 233.782C271.446 231.064 274.377 228.606 276.728 226.69ZM209.323 197.705C210.14 191.835 204.323 186.178 196.323 185.056C188.322 183.941 181.177 187.804 180.361 193.674C179.536 199.545 185.361 205.201 193.361 206.316C201.361 207.43 208.506 203.575 209.323 197.705ZM132.619 197.728C132.619 191.796 126.07 186.995 117.993 186.995C109.917 186.995 103.375 191.796 103.375 197.728C103.375 203.652 109.917 208.461 117.993 208.461C126.07 208.461 132.619 203.652 132.619 197.728Z" fill="#F8ACB1"/>
<path d="M314.462 186.323C324.965 200.224 328.004 212.995 327.126 224.43V224.469L327.118 224.492C326.431 233.286 323.301 241.576 318.118 249.133V249.141C304.599 268.897 277.133 283.767 242.835 290.294C225.193 293.66 205.743 294.821 185.445 293.294C155.001 291.011 127.337 283.05 105.466 271.469L104.894 271.164C104.405 270.897 103.917 270.63 103.428 270.347C134.261 275.767 184.872 287.263 228.903 280.485C271.751 273.889 308.37 249.98 314.462 186.323Z" fill="#EF7180"/>
<path d="M103.375 270.347C103.878 270.614 104.382 270.897 104.894 271.164L105.466 271.469C127.398 283.286 155.184 291.416 185.795 293.737C192.567 294.256 199.231 294.47 205.773 294.393C206.254 294.393 206.727 294.393 207.2 294.37C207.811 294.363 208.422 294.355 209.025 294.34C209.742 294.317 210.46 294.294 211.17 294.271C212.032 294.248 212.895 294.21 213.75 294.164C214.307 294.149 214.857 294.111 215.407 294.08C215.994 294.057 216.574 294.019 217.162 293.981C217.231 293.973 217.3 293.973 217.368 293.966C217.811 293.943 218.262 293.912 218.704 293.874C218.826 293.866 218.949 293.866 219.071 293.851H219.117C219.269 293.844 219.414 293.828 219.567 293.821C219.994 293.79 220.43 293.752 220.857 293.721C221.956 293.63 223.048 293.538 224.132 293.439C224.834 293.37 225.536 293.294 226.231 293.218L226.506 293.195C227.307 293.111 228.101 293.019 228.895 292.92C229.101 292.897 229.3 292.874 229.506 292.859C230.002 292.79 230.506 292.729 231.002 292.668C231.361 292.622 231.727 292.576 232.086 292.515C232.155 292.508 232.216 292.5 232.285 292.492C232.85 292.416 233.422 292.34 233.979 292.256C234.735 292.149 235.483 292.034 236.231 291.92C237.033 291.798 237.834 291.668 238.628 291.531C239.498 291.386 240.353 291.24 241.216 291.08C241.941 290.958 242.659 290.813 243.376 290.676C244.186 290.523 244.987 290.355 245.789 290.195C246.17 290.111 246.552 290.034 246.926 289.95C247.025 289.935 247.124 289.912 247.224 289.889C248.048 289.714 248.865 289.531 249.682 289.34C250.72 289.103 251.751 288.859 252.773 288.599C253.231 288.492 253.689 288.378 254.14 288.256C254.598 288.141 255.056 288.019 255.506 287.905C256.369 287.668 257.232 287.439 258.079 287.195C258.468 287.088 258.857 286.973 259.247 286.859C259.789 286.706 260.331 286.546 260.865 286.378C261.552 286.187 262.232 285.966 262.911 285.752C262.995 285.729 263.079 285.706 263.163 285.668C263.484 285.576 263.804 285.469 264.117 285.37C264.552 285.233 264.98 285.088 265.407 284.943C266.178 284.691 266.949 284.424 267.705 284.164C268.178 283.996 268.652 283.828 269.117 283.66C269.132 283.653 269.14 283.653 269.155 283.653C269.56 283.508 269.957 283.355 270.354 283.202C271.285 282.859 272.201 282.508 273.11 282.149C273.835 281.866 274.552 281.576 275.262 281.286C275.583 281.156 275.896 281.034 276.201 280.897C276.293 280.859 276.392 280.813 276.484 280.775C276.82 280.645 277.155 280.492 277.484 280.347C277.812 280.217 278.14 280.072 278.468 279.92C278.911 279.729 279.346 279.53 279.781 279.332C280.217 279.141 280.644 278.943 281.072 278.744C281.499 278.546 281.926 278.34 282.346 278.133C282.736 277.95 283.117 277.775 283.499 277.569C283.537 277.553 283.575 277.538 283.614 277.515C284.033 277.309 284.453 277.103 284.865 276.889C285.278 276.691 285.69 276.469 286.095 276.263C286.835 275.881 287.568 275.492 288.285 275.088C289.011 274.691 289.736 274.286 290.446 273.874C290.713 273.729 290.98 273.568 291.247 273.408C291.621 273.202 291.988 272.973 292.354 272.752C292.797 272.492 293.24 272.217 293.675 271.95C293.934 271.79 294.186 271.63 294.438 271.469C294.774 271.255 295.11 271.042 295.438 270.828C295.82 270.584 296.194 270.347 296.56 270.087C296.934 269.843 297.301 269.591 297.667 269.339C298.4 268.836 299.125 268.324 299.835 267.813C300.293 267.484 300.736 267.156 301.179 266.82C302.148 266.095 303.087 265.355 304.003 264.614C304.431 264.263 304.85 263.912 305.263 263.568C305.698 263.194 306.118 262.828 306.538 262.454C306.98 262.064 307.415 261.675 307.843 261.286C308.232 260.927 308.614 260.568 308.988 260.202C309.37 259.843 309.751 259.469 310.118 259.103C310.408 258.813 310.698 258.515 310.98 258.225C311.225 257.973 311.469 257.721 311.706 257.469C312.37 256.767 313.011 256.057 313.637 255.339C313.935 254.996 314.225 254.652 314.515 254.316C314.858 253.904 315.194 253.5 315.515 253.08C315.843 252.675 316.164 252.263 316.477 251.843C316.66 251.606 316.835 251.362 317.011 251.125C317.232 250.835 317.438 250.545 317.645 250.255C317.866 249.95 318.08 249.645 318.293 249.332C320.515 251.08 322.622 252.851 324.629 254.629C325.851 271.645 302.805 295.21 265.713 306.416C231.185 316.859 184.482 316.584 133.833 290.378C133.764 290.34 133.688 290.302 133.619 290.263C121.627 284.034 109.405 276.362 97.0691 267.019C97.0615 267.011 97.0538 267.004 97.0386 267.004L97.6569 266.958H97.6645C98.1302 267.248 98.6035 267.53 99.0768 267.82C99.6264 268.149 100.176 268.484 100.733 268.813C100.978 268.958 101.229 269.103 101.481 269.248C102.13 269.614 102.779 269.981 103.428 270.347C103.405 270.347 103.397 270.347 103.375 270.347Z" fill="#DDB590"/>
<path d="M314.95 0C323.461 12.0154 323.217 28.0691 320.538 41.2677C311.644 45.1991 304.858 50.4281 300.828 54.474C289.324 43.8326 276.11 35.5654 262.071 29.9851H262.087C288.514 20.9926 296.629 16.5422 314.95 0Z" fill="#B8A794"/>
<path d="M284.896 323.943C297.973 342.631 298.652 348.318 296.629 359.547H266.728C275.812 348.921 279.018 343.768 284.896 323.943Z" fill="#DDB590"/>
<path d="M279.019 224.858L276.729 226.69C277.561 226.003 278.332 225.392 279.019 224.858Z" fill="#F8ACB1"/>
<path d="M267.866 233.782L276.728 226.69C274.377 228.606 271.446 231.064 267.866 233.782Z" fill="#F8ACB1"/>
<path d="M267.865 233.782C276.094 277.752 219.727 271.446 199.933 260.072C233.247 256.927 254.842 243.66 267.865 233.782Z" fill="#A84547"/>
<path d="M258.881 89.0622C265.675 89.0622 271.186 98.3982 271.186 109.925C271.186 121.452 265.675 130.788 258.881 130.788C252.079 130.788 246.575 121.452 246.575 109.925C246.575 98.3982 252.079 89.0622 258.881 89.0622ZM266.728 103.566C266.728 100.047 264.644 97.1997 262.087 97.1997C259.522 97.1997 257.446 100.047 257.446 103.566C257.446 107.078 259.522 109.925 262.087 109.925C264.644 109.925 266.728 107.078 266.728 103.566Z" fill="#201E1A"/>
<path d="M262.087 97.1997C264.644 97.1997 266.728 100.047 266.728 103.566C266.728 107.078 264.644 109.925 262.087 109.925C259.522 109.925 257.445 107.078 257.445 103.566C257.445 100.047 259.522 97.1997 262.087 97.1997Z" fill="white"/>
<path d="M196.323 185.056C204.323 186.178 210.14 191.835 209.323 197.705C208.506 203.575 201.361 207.43 193.361 206.316C185.361 205.201 179.536 199.545 180.36 193.674C181.177 187.804 188.322 183.941 196.323 185.056Z" fill="#A84547"/>
<path d="M199.933 260.072L191.575 260.637C187.124 260.813 182.468 260.813 177.62 260.606L199.933 260.072Z" fill="#F8ACB1"/>
<path d="M191.575 260.637L199.934 260.072C197.224 260.332 194.445 260.523 191.575 260.637Z" fill="#F8ACB1"/>
<path d="M194.841 24.4278C194.841 25.0843 194.834 25.7331 194.819 26.3744C194.819 26.4202 194.819 26.466 194.811 26.5042C194.811 26.695 194.811 26.8858 194.796 27.069V27.0996C194.796 27.1072 194.796 27.1149 194.796 27.1225C194.796 27.1607 194.796 27.1912 194.796 27.2293C194.788 27.7484 194.765 28.2675 194.735 28.7866C194.735 28.8172 194.735 28.8477 194.727 28.8859C194.727 28.9317 194.727 28.9851 194.719 29.0309C194.712 29.2828 194.696 29.5347 194.681 29.7866C194.674 29.9317 194.658 30.0767 194.651 30.2141C194.651 30.2676 194.643 30.321 194.643 30.3821C194.628 30.7256 194.605 31.0615 194.574 31.3974V31.405C194.536 31.9317 194.49 32.4584 194.437 32.9852C194.429 33.1073 194.414 33.2447 194.399 33.3745C194.391 33.4355 194.391 33.489 194.383 33.5424C194.376 33.6188 194.368 33.6951 194.361 33.7638C194.307 34.2218 194.261 34.6646 194.2 35.1073C194.162 35.4127 194.124 35.7104 194.086 36.0081C194.032 36.4203 193.979 36.8096 193.91 37.2066C193.88 37.4356 193.841 37.6646 193.803 37.9012C193.788 37.9929 193.773 38.0921 193.757 38.1837C193.735 38.3287 193.719 38.4662 193.689 38.6036C193.658 38.802 193.62 38.9929 193.582 39.1837C193.551 39.3593 193.521 39.5349 193.483 39.7104C193.483 39.7257 193.475 39.741 193.475 39.7562C193.437 39.9547 193.406 40.1532 193.361 40.344C193.238 41.0158 193.101 41.6723 192.948 42.3212C192.902 42.5578 192.841 42.8097 192.78 43.0463C192.773 43.0845 192.757 43.1151 192.75 43.1532C192.727 43.2601 192.704 43.3746 192.674 43.4815C192.666 43.5044 192.666 43.5197 192.658 43.5426C192.651 43.5731 192.643 43.6189 192.635 43.6418C192.551 44.0158 192.46 44.3899 192.353 44.7487C192.345 44.8174 192.322 44.8784 192.299 44.9395C192.177 45.4052 192.048 45.8708 191.91 46.3288C191.834 46.6037 191.757 46.8785 191.673 47.1457C191.612 47.3365 191.559 47.5273 191.498 47.7105C191.483 47.7487 191.475 47.7869 191.46 47.825V47.8327C191.452 47.8556 191.444 47.8785 191.437 47.9014C191.437 47.9167 191.429 47.9167 191.429 47.9243C191.422 47.9243 191.422 47.9319 191.422 47.9319C191.353 48.1838 191.269 48.4205 191.185 48.6648C191.17 48.7258 191.147 48.7793 191.131 48.8251C191.025 49.1609 190.91 49.4739 190.796 49.7945C190.735 49.9854 190.666 50.1839 190.589 50.3747C190.49 50.6648 190.383 50.9472 190.269 51.2297C190.261 51.2602 190.254 51.2908 190.231 51.3213C190.116 51.6419 189.994 51.9472 189.864 52.2602C189.857 52.2678 189.857 52.2831 189.849 52.306C189.803 52.4282 189.75 52.5579 189.689 52.6877C189.673 52.7335 189.651 52.7869 189.628 52.8327C189.544 53.0541 189.444 53.2831 189.338 53.5122C189.307 53.6038 189.269 53.6953 189.223 53.787C189.07 54.1457 188.91 54.5045 188.742 54.8557C188.567 55.245 188.391 55.6267 188.208 56.0007C187.971 56.4816 187.734 56.9549 187.49 57.4282C187.315 57.7565 187.147 58.0771 186.971 58.3977C186.719 58.8557 186.467 59.2985 186.208 59.7489C185.933 60.2221 185.65 60.6878 185.36 61.1458C185.338 61.1916 185.307 61.2451 185.269 61.2909C185.177 61.4436 185.086 61.5886 184.986 61.7489C184.925 61.8481 184.857 61.955 184.78 62.0619C184.757 62.1 184.734 62.1458 184.704 62.184C184.567 62.4054 184.421 62.6191 184.269 62.8329C184.269 62.8481 184.261 62.8634 184.246 62.871C184.07 63.1382 183.895 63.3901 183.712 63.642C183.261 64.2985 182.795 64.9474 182.307 65.5734C182.162 65.7642 182.017 65.9551 181.857 66.1459C181.681 66.3825 181.498 66.6039 181.315 66.8253C181.063 67.1383 180.811 67.4513 180.544 67.749C180.292 68.0467 180.032 68.352 179.773 68.6421C179.727 68.6955 179.681 68.7413 179.635 68.7948C179.628 68.8024 179.62 68.8101 179.62 68.8177C179.368 69.1001 179.124 69.3673 178.872 69.6345C178.643 69.8788 178.414 70.1154 178.185 70.3521C178.147 70.3826 178.116 70.4208 178.085 70.4513C177.918 70.6269 177.75 70.8024 177.574 70.9704C177.521 71.0238 177.467 71.0849 177.414 71.1383C177.124 71.436 176.841 71.7109 176.551 71.978L176.528 72.0086C176.505 72.0391 176.475 72.062 176.452 72.0773C176.437 72.0925 176.421 72.1002 176.406 72.1154C176.398 72.1231 176.398 72.1231 176.391 72.1307C176.024 72.4895 175.65 72.8254 175.276 73.1536C175.147 73.2758 175.009 73.3979 174.879 73.5124C174.856 73.5277 174.834 73.5506 174.811 73.5658C174.658 73.7032 174.505 73.833 174.345 73.9704C174.017 74.2605 173.689 74.5429 173.353 74.8025C172.933 75.146 172.505 75.4819 172.078 75.8254C172.032 75.8559 171.994 75.8865 171.948 75.9246C171.849 76.001 171.742 76.0773 171.635 76.1613C171.208 76.4819 170.788 76.7949 170.353 77.1155C170.07 77.314 169.78 77.5125 169.49 77.7109C169.444 77.7491 169.398 77.7873 169.345 77.8102C169.085 77.9934 168.826 78.1689 168.559 78.3522C168.307 78.5201 168.047 78.688 167.795 78.856C167.612 78.9705 167.436 79.085 167.253 79.1919C167.009 79.3445 166.765 79.5048 166.52 79.6423C166.131 79.8789 165.734 80.1155 165.345 80.3446C165.223 80.4133 165.093 80.4896 164.971 80.5507C164.62 80.7568 164.269 80.9552 163.91 81.1461C163.582 81.3217 163.253 81.5049 162.925 81.6728C162.475 81.9095 162.032 82.1385 161.574 82.3598C161.421 82.4285 161.268 82.5049 161.123 82.5736C160.917 82.6805 160.704 82.7797 160.49 82.8866C159.62 83.2912 158.749 83.6805 157.871 84.0545C157.551 84.1843 157.23 84.3217 156.902 84.4438C156.566 84.5813 156.23 84.7187 155.887 84.8484C155.688 84.9324 155.497 85.0087 155.299 85.0774C155.177 85.1232 155.055 85.1614 154.933 85.2072C154.887 85.2225 154.849 85.2454 154.803 85.253C154.566 85.3446 154.337 85.4286 154.1 85.5126C153.795 85.6194 153.497 85.7263 153.192 85.8255C152.001 86.2301 150.818 86.5965 149.627 86.9401C149.352 87.0164 149.085 87.0927 148.81 87.1614C148.452 87.2607 148.1 87.3523 147.742 87.4439C147.093 87.6118 146.444 87.7645 145.803 87.9095C145.497 87.9782 145.192 88.0469 144.887 88.108C144.543 88.1843 144.207 88.2607 143.864 88.3294C143.406 88.421 142.955 88.505 142.497 88.5813C142.169 88.6424 141.841 88.7111 141.513 88.7569C140.772 88.879 140.032 88.9935 139.299 89.0928C138.566 89.192 137.833 89.276 137.108 89.3599C136.665 89.4057 136.23 89.4516 135.787 89.4897C135.253 89.5355 134.719 89.5813 134.184 89.6195C133.635 89.65 133.093 89.6805 132.558 89.7111C132.123 89.7264 131.696 89.7416 131.276 89.7569C131.138 89.7569 131.001 89.7569 130.864 89.7645C130.367 89.7722 129.879 89.7798 129.398 89.7798C126.008 89.7798 122.833 89.5279 119.97 89.0622C121.772 85.2454 123.68 81.6041 125.688 78.1232C131.68 67.7719 138.551 58.9397 146.077 51.5579C149.65 48.0388 153.375 44.8632 157.23 41.9853C157.902 41.4815 158.581 40.9929 159.261 40.512C160.414 39.6952 161.581 38.9013 162.765 38.1379C162.826 38.0997 162.887 38.0539 162.956 38.0158C163.551 37.6264 164.154 37.2447 164.765 36.8707C165.406 36.4814 166.047 36.0921 166.688 35.718C167.337 35.3363 167.979 34.9699 168.627 34.6035C169.284 34.2447 169.933 33.8859 170.589 33.5424C171.246 33.1989 171.902 32.8554 172.559 32.5271C173.879 31.863 175.208 31.2294 176.544 30.634C177.208 30.3286 177.879 30.0386 178.551 29.7561C179.231 29.466 179.902 29.1912 180.582 28.924C181.253 28.6492 181.933 28.3897 182.612 28.1378C183.299 27.8858 183.979 27.6416 184.666 27.3973C186.025 26.924 187.399 26.4812 188.773 26.0614C188.78 26.0614 188.78 26.0614 188.788 26.0614C190.788 25.4507 192.811 24.9164 194.841 24.4278Z" fill="#2D2E29"/>
<path d="M194.201 35.1073C194.262 34.6646 194.308 34.2218 194.361 33.7638C194.315 34.2218 194.262 34.6646 194.201 35.1073Z" fill="#EE9BA0"/>
<path d="M192.658 43.5426C192.658 43.5731 192.651 43.6113 192.635 43.6418C192.643 43.6189 192.651 43.5731 192.658 43.5426Z" fill="#EE9BA0"/>
<path d="M191.498 47.7105C191.559 47.5273 191.613 47.3365 191.674 47.1457C191.62 47.3365 191.559 47.5197 191.498 47.7105Z" fill="#EE9BA0"/>
<path d="M188.773 26.0614C188.086 26.2675 187.406 26.4813 186.719 26.7026C186.032 26.924 185.345 27.153 184.666 27.3973C183.979 27.6416 183.299 27.8859 182.612 28.1378C181.933 28.3897 181.254 28.6492 180.582 28.924C179.902 29.1912 179.223 29.466 178.551 29.7561C177.88 30.0309 177.208 30.3286 176.544 30.634C175.208 31.2218 173.872 31.8554 172.559 32.5271C171.895 32.8477 171.238 33.1836 170.589 33.5424C169.933 33.8859 169.276 34.2371 168.628 34.6035C167.979 34.9623 167.33 35.3287 166.689 35.718C166.04 36.0844 165.398 36.4738 164.765 36.8707C164.162 37.2371 163.559 37.6188 162.956 38.0158C162.887 38.0539 162.826 38.0997 162.765 38.1379C161.589 38.8936 160.421 39.6875 159.261 40.512C158.582 40.9929 157.902 41.4815 157.23 41.9853C151.078 24.4278 153.009 15.0002 164.07 0C176.422 5.69473 183.467 13.0383 188.773 26.0614Z" fill="#B8A794"/>
<path d="M186.719 26.7027C187.407 26.4813 188.086 26.2675 188.773 26.0614C187.399 26.4813 186.025 26.924 184.666 27.3973C185.345 27.153 186.032 26.924 186.719 26.7027Z" fill="#EE9BA0"/>
<path d="M188.742 54.8557C188.658 55.0542 188.567 55.2603 188.475 55.4588C188.384 55.642 188.292 55.8175 188.208 56.0007C188.391 55.6267 188.567 55.245 188.742 54.8557Z" fill="#EE9BA0"/>
<path d="M184.269 62.8329C184.422 62.6191 184.567 62.4054 184.704 62.184C184.567 62.4054 184.422 62.6268 184.269 62.8329Z" fill="#EE9BA0"/>
<path d="M182.613 28.1378C181.933 28.3897 181.254 28.6492 180.582 28.924C181.254 28.6492 181.933 28.3897 182.613 28.1378Z" fill="#EE9BA0"/>
<path d="M180.582 28.924C179.903 29.1912 179.231 29.4661 178.552 29.7561C179.224 29.4661 179.903 29.1912 180.582 28.924Z" fill="#EE9BA0"/>
<path d="M178.872 69.6345C179.124 69.3673 179.368 69.1001 179.62 68.8177C179.376 69.1001 179.124 69.3597 178.872 69.6345Z" fill="#EE9BA0"/>
<path d="M178.872 69.6345C178.834 69.6803 178.796 69.7261 178.75 69.7719C178.567 69.9627 178.376 70.1612 178.185 70.3521C178.414 70.1154 178.643 69.8788 178.872 69.6345Z" fill="#EE9BA0"/>
<path d="M178.551 29.7561C177.879 30.0386 177.208 30.3287 176.543 30.634C177.208 30.3287 177.879 30.0309 178.551 29.7561Z" fill="#EE9BA0"/>
<path d="M178.085 70.4513C178.116 70.4208 178.147 70.3826 178.185 70.3521C178.162 70.3902 178.124 70.4208 178.085 70.4513Z" fill="#EE9BA0"/>
<path d="M178.086 70.4513C177.956 70.5963 177.819 70.7337 177.681 70.8711C177.597 70.9627 177.506 71.0467 177.414 71.1383C177.467 71.0849 177.521 71.0238 177.574 70.9704C177.75 70.8024 177.918 70.6269 178.086 70.4513Z" fill="#EE9BA0"/>
<path d="M177.414 71.1383C177.124 71.436 176.826 71.7261 176.528 72.0086L176.551 71.978C176.841 71.7109 177.124 71.436 177.414 71.1383Z" fill="#EE9BA0"/>
<path d="M176.407 72.1159C176.422 72.1005 176.438 72.0927 176.453 72.0773C176.43 72.1005 176.414 72.1159 176.391 72.1314C176.399 72.1237 176.399 72.1237 176.407 72.1159Z" fill="#EE9BA0"/>
<path d="M174.811 73.5659C174.75 73.6269 174.696 73.6727 174.635 73.7262C174.536 73.8101 174.444 73.8941 174.345 73.9704C174.506 73.833 174.658 73.7033 174.811 73.5659Z" fill="#EE9BA0"/>
<path d="M176.544 30.634C175.208 31.2294 173.88 31.863 172.559 32.5271C173.872 31.8554 175.208 31.2218 176.544 30.634Z" fill="#EE9BA0"/>
<path d="M172.078 75.8254C172.506 75.4819 172.933 75.146 173.353 74.8025C172.933 75.1613 172.506 75.4972 172.078 75.8254Z" fill="#EE9BA0"/>
<path d="M172.559 32.5271C171.902 32.8554 171.246 33.1989 170.589 33.5424C171.238 33.1836 171.895 32.8477 172.559 32.5271Z" fill="#EE9BA0"/>
<path d="M164.07 93.131C170.17 93.131 175.124 100.826 175.124 110.307C175.124 119.795 170.17 127.483 164.07 127.483C157.964 127.483 153.009 119.795 153.009 110.307C153.009 100.826 157.964 93.131 164.07 93.131ZM169.91 105.665C169.91 103.101 168.605 101.017 166.987 101.017C165.376 101.017 164.07 103.101 164.07 105.665C164.07 108.23 165.376 110.307 166.987 110.307C168.605 110.307 169.91 108.23 169.91 105.665Z" fill="#2D2E29"/>
<path d="M170.59 33.5424C169.933 33.8859 169.284 34.2447 168.628 34.6035C169.277 34.2371 169.933 33.8859 170.59 33.5424Z" fill="#EE9BA0"/>
<path d="M168.559 78.3522C168.826 78.169 169.085 77.9934 169.345 77.8102C169.085 78.001 168.818 78.1766 168.559 78.3522Z" fill="#EE9BA0"/>
<path d="M166.986 101.017C168.605 101.017 169.91 103.101 169.91 105.665C169.91 108.23 168.605 110.307 166.986 110.307C165.376 110.307 164.07 108.23 164.07 105.665C164.07 103.101 165.376 101.017 166.986 101.017Z" fill="white"/>
<path d="M168.628 34.6035C167.979 34.9699 167.338 35.3363 166.689 35.718C167.33 35.3287 167.979 34.9623 168.628 34.6035Z" fill="#EE9BA0"/>
<path d="M167.795 78.856C167.658 78.94 167.513 79.0316 167.376 79.1232C167.337 79.1461 167.292 79.169 167.253 79.1919C167.437 79.085 167.612 78.9705 167.795 78.856Z" fill="#EE9BA0"/>
<path d="M166.689 35.718C166.048 36.0921 165.406 36.4814 164.765 36.8707C165.399 36.4737 166.04 36.0844 166.689 35.718Z" fill="#EE9BA0"/>
<path d="M164.765 36.8707C164.154 37.2447 163.551 37.6264 162.956 38.0158C163.559 37.6188 164.162 37.2371 164.765 36.8707Z" fill="#EE9BA0"/>
<path d="M162.925 81.6728C162.819 81.7339 162.719 81.7873 162.612 81.8408C162.605 81.8408 162.605 81.8408 162.597 81.8484C162.322 81.9858 162.048 82.1308 161.773 82.2682C161.704 82.2988 161.643 82.3293 161.574 82.3598C162.032 82.1385 162.475 81.9095 162.925 81.6728Z" fill="#EE9BA0"/>
<path d="M162.765 38.1379C161.582 38.9013 160.414 39.6952 159.261 40.512C160.422 39.6876 161.59 38.8936 162.765 38.1379Z" fill="#EE9BA0"/>
<path d="M145.978 51.6419L146.077 51.5579C138.55 58.9397 131.68 67.7719 125.688 78.1231L125.81 77.8941C120.329 57.3748 105.145 43.8097 86.0688 42.1532C96.1453 39.2677 123.588 27.611 145.978 51.6419Z" fill="#2D2E29"/>
<path d="M137.108 89.36C136.757 89.3981 136.398 89.4363 136.04 89.4745C135.956 89.4745 135.872 89.4821 135.788 89.4897C136.23 89.4516 136.665 89.4058 137.108 89.36Z" fill="#EE9BA0"/>
<path d="M117.994 186.995C126.07 186.995 132.62 191.796 132.62 197.728C132.62 203.652 126.07 208.461 117.994 208.461C109.917 208.461 103.375 203.652 103.375 197.728C103.375 191.796 109.917 186.995 117.994 186.995Z" fill="#A84547"/>
<path d="M133.619 290.263C127.955 298.431 123.818 305.966 120.81 312.851C120.703 313.096 120.604 313.332 120.505 313.569C68.443 300.004 46.7404 280.744 24.6485 265.958C24.6103 265.965 24.5722 265.988 24.534 266.004C24.5035 265.981 24.4729 265.965 24.4424 265.95C36.87 259.752 46.1755 246.98 49.0381 234.576C49.0458 234.576 70.7636 251.576 97.0388 267.004C97.054 267.004 97.0617 267.011 97.0693 267.019C109.405 276.362 121.627 284.034 133.619 290.263Z" fill="#FFFBEA"/>
<path d="M125.81 77.8942L125.688 78.1232C123.681 81.6041 121.772 85.2454 119.97 89.0622C119.963 89.0622 119.963 89.0622 119.955 89.0622C105.459 89.0622 92.8786 78.94 86.5273 64.0619L82.1914 42.3364C83.0693 42.0158 83.741 42.1151 86.0693 42.1532C105.146 43.8097 120.329 57.3748 125.81 77.8942Z" fill="#EE9BA0"/>
<path d="M120.49 313.6C118.574 318.073 117.131 322.256 116.07 326.134C116.001 326.378 115.94 326.623 115.879 326.867C60.1988 305.172 54.0537 301.546 15.1753 269.217C15.5799 269.149 15.9845 269.057 16.389 268.942C16.6562 268.881 16.9234 268.82 17.1906 268.744C19.7326 268.103 22.1907 267.164 24.5342 266.003C46.6108 280.805 68.3592 300.065 120.49 313.6Z" fill="#DDB590"/>
<path d="M103.321 334.714C106.146 336.951 108.757 339.378 111.1 342.004C111.1 345.371 72.4202 352.936 22.5493 348.111C24.4806 343.302 25.5799 338.676 26.0837 334.355C36.6716 335.76 69.382 340.539 103.321 334.714Z" fill="#DDB590"/>
<path d="M103.428 270.347C103.917 270.629 104.406 270.897 104.894 271.164C104.383 270.897 103.879 270.614 103.375 270.347C103.398 270.347 103.406 270.347 103.428 270.347Z" fill="#F8ACB1"/>
<path d="M102.619 334.058C102.894 334.272 103.169 334.478 103.444 334.691C103.405 334.707 103.36 334.707 103.321 334.714C103.184 334.607 103.047 334.485 102.909 334.378C69.1683 340.241 36.6182 335.44 26.1219 334.043C26.1066 334.149 26.099 334.249 26.0838 334.356H26.0609C26.9998 326.02 25.7479 318.806 24.0532 313.607C23.9769 313.348 23.8852 313.088 23.8013 312.836C23.7173 312.569 23.6181 312.309 23.5265 312.05C23.4654 311.867 23.3967 311.691 23.328 311.516C23.2287 311.256 23.1295 310.996 23.0303 310.752C21.8165 307.668 20.5341 305.645 19.7783 304.935H39.8931C62.9468 314.432 86.2448 321.661 102.619 334.058Z" fill="#FFFBEA"/>
<path d="M102.909 334.378C103.047 334.485 103.184 334.607 103.322 334.714C69.3822 340.539 36.6719 335.76 26.084 334.356C26.0993 334.249 26.1069 334.149 26.1221 334.043C36.6185 335.44 69.1685 340.241 102.909 334.378Z" fill="#C7B299"/>
<path d="M48.6795 234.614C48.71 234.652 48.7406 234.682 48.7711 234.713C45.9085 247.118 36.5954 259.896 24.1677 266.08C21.9387 267.194 19.6028 268.103 17.1905 268.744C16.9233 268.82 16.6562 268.881 16.389 268.942C15.9768 269.034 15.5646 269.126 15.1523 269.202C15.16 269.21 15.1676 269.217 15.1752 269.217C15.0073 269.255 14.8394 269.294 14.6714 269.324C9.07593 263.767 9.07592 263.767 3.48043 258.194C1.48804 245.469 9.07592 241.072 17.2211 241.064C27.3662 217.033 36 220.774 48.6719 234.606L48.6795 234.614Z" fill="#B7A18B"/>
<path d="M24.0532 313.607C25.6715 318.79 26.8624 325.905 25.9387 334.088C25.4501 338.501 24.3432 343.241 22.3661 348.157C13.0836 348.157 5.57201 348.157 5.57201 348.157C2.63304 347.157 -2.57314 342.05 1.49562 326.447C1.49562 326.447 -4.35179 300.309 19.3126 304.668C19.4271 304.668 19.5875 304.76 19.7783 304.935C19.5188 304.935 19.3814 304.935 19.3814 304.935C19.9463 304.935 21.5188 307.057 23.0303 310.752C23.1295 310.996 23.2287 311.256 23.328 311.516C23.3967 311.691 23.4654 311.867 23.5265 312.05C23.6181 312.309 23.7173 312.569 23.8013 312.836C23.8852 313.088 23.9768 313.348 24.0532 313.607Z" fill="#B7A18B"/>
</svg>
