<svg width="54" height="53" viewBox="0 0 54 53" fill="none" xmlns="http://www.w3.org/2000/svg">
<g clip-path="url(#clip0_4_86)">
<path d="M53.1795 26.5878C53.1795 24.7539 53.0341 22.9101 52.7241 21.106H27.8523V31.4946H42.0952C41.5042 34.8451 39.0755 38.218 36.2947 40.1014L36.8244 46.4332L44.7371 46.4332C49.727 41.7345 53.1795 34.7956 53.1795 26.5878Z" fill="#4285F4"/>
<path d="M27.2097 52.765C34.3412 52.765 40.3554 50.4529 44.7372 46.462L36.2949 40.1014C33.9242 41.6939 30.7852 42.4326 27.2194 42.4326C20.3211 42.4326 14.1216 37.8373 12.023 31.659H3.58057V38.3841C8.06933 47.2007 17.212 52.765 27.2097 52.765Z" fill="#34A853"/>
<path d="M12.0228 31.659C10.8132 28.4482 11.3409 24.3168 12.5505 21.106L13.0781 14.7742L3.58038 14.2465C-0.515258 21.5516 -0.609397 30.6857 3.48624 37.9908L12.0228 31.659Z" fill="#FBBC04"/>
<path d="M27.7187 10.3285C31.5697 10.271 35.2917 11.6709 38.0806 14.2406L45.7925 6.7904C40.9093 2.36052 34.4282 -0.0749493 27.7187 0.00175851C17.5057 0.00175851 8.16602 5.42515 3.58057 14.2465L12.553 21.106C14.6869 14.9214 20.6718 10.3285 27.7187 10.3285Z" fill="#EA4335"/>
</g>
<defs>
<clipPath id="clip0_4_86">
<rect width="52.765" height="52.765" fill="white" transform="translate(0.414551)"/>
</clipPath>
</defs>
</svg>
