<svg width="24" height="24" viewBox="0 0 24 24" fill="none" xmlns="http://www.w3.org/2000/svg">
<path d="M13 14C13 13.4477 12.5523 13 12 13C11.4477 13 11 13.4477 11 14H13ZM11 17C11 17.5523 11.4477 18 12 18C12.5523 18 13 17.5523 13 17H11ZM11 4H13V2H11V4ZM15 6V9H17V6H15ZM16 8H8V10H16V8ZM9 9V6H7V9H9ZM18 12V18H20V12H18ZM16 20H8V22H16V20ZM6 18V12H4V18H6ZM8 20C6.89543 20 6 19.1046 6 18H4C4 20.2091 5.79086 22 8 22V20ZM18 18C18 19.1046 17.1046 20 16 20V22C18.2091 22 20 20.2091 20 18H18ZM16 10C17.1046 10 18 10.8954 18 12H20C20 9.79086 18.2091 8 16 8V10ZM8 8C5.79086 8 4 9.79086 4 12H6C6 10.8954 6.89543 10 8 10V8ZM12 14V16C13.1046 16 14 15.1046 14 14H12ZM12 14H10C10 15.1046 10.8954 16 12 16V14ZM12 14V12C10.8954 12 10 12.8954 10 14H12ZM12 14H14C14 12.8954 13.1046 12 12 12V14ZM11 14V17H13V14H11ZM13 4C14.1046 4 15 4.89543 15 6H17C17 3.79086 15.2091 2 13 2V4ZM11 2C8.79086 2 7 3.79086 7 6H9C9 4.89543 9.89543 4 11 4V2Z" fill="#6D99A8"/>
</svg>
