<svg width="24" height="24" viewBox="0 0 24 24" fill="none" xmlns="http://www.w3.org/2000/svg">
<path d="M4 20C4 20.5523 4.44772 21 5 21C5.55228 21 6 20.5523 6 20H4ZM18 20C18 20.5523 18.4477 21 19 21C19.5523 21 20 20.5523 20 20H18ZM6 20V19H4V20H6ZM10 15H14V13H10V15ZM18 19V20H20V19H18ZM15 7C15 8.65685 13.6569 10 12 10V12C14.7614 12 17 9.76142 17 7H15ZM12 10C10.3431 10 9 8.65685 9 7H7C7 9.76142 9.23858 12 12 12V10ZM9 7C9 5.34315 10.3431 4 12 4V2C9.23858 2 7 4.23858 7 7H9ZM12 4C13.6569 4 15 5.34315 15 7H17C17 4.23858 14.7614 2 12 2V4ZM14 15C16.2091 15 18 16.7909 18 19H20C20 15.6863 17.3137 13 14 13V15ZM6 19C6 16.7909 7.79086 15 10 15V13C6.68629 13 4 15.6863 4 19H6Z" fill="#6D99A8"/>
</svg>
